<?xml version="1.0" standalone="no"?>
<!DOCTYPE svg PUBLIC "-//W3C//DTD SVG 20010904//EN"
 "http://www.w3.org/TR/2001/REC-SVG-20010904/DTD/svg10.dtd">
<svg  version="1.0" xmlns="http://www.w3.org/2000/svg"
 width="1092.000000pt" height="714.000000pt" viewBox="0 0 1092.000000 714.000000"
 preserveAspectRatio="xMidYMid meet" style="color: red">

<g transform="translate(0.000000,714.000000) scale(0.100000,-0.100000)"
fill="#000000" stroke="none">
<path d="M2642 6297 c-63 -193 -190 -588 -284 -877 -94 -289 -173 -535 -176
-547 l-4 -23 -953 -2 -953 -3 595 -430 c328 -236 673 -485 767 -553 94 -68
170 -129 170 -135 -1 -7 -131 -407 -289 -890 -158 -483 -285 -881 -282 -883 3
-3 331 230 731 517 l726 522 0 148 0 149 -30 0 c-28 0 -30 -3 -30 -35 0 -43
48 -17 -640 -342 -52 -25 -98 -47 -101 -49 -8 -4 44 157 214 676 63 190 112
348 110 352 -2 3 -197 147 -434 320 l-431 313 539 3 539 2 164 505 c91 278
167 505 171 505 3 0 15 -33 28 -72 87 -275 376 -1155 382 -1161 4 -5 67 0 140
12 316 49 1932 299 2584 400 391 60 733 113 760 118 28 4 -705 10 -1629 13
l-1680 5 -33 105 c-19 58 -92 283 -163 500 -71 217 -186 574 -257 792 -70 219
-130 398 -133 398 -3 0 -56 -159 -118 -353z"/>
<path d="M2619 4685 c-44 -27 -62 -47 -80 -83 -27 -57 -34 -129 -20 -202 l10
-55 -35 -28 c-50 -42 -45 -84 7 -57 18 10 19 6 19 -147 0 -87 -5 -178 -11
-203 -6 -25 -11 -89 -12 -142 l-2 -97 35 -36 c19 -20 50 -45 68 -56 22 -14 32
-28 32 -45 0 -20 5 -24 30 -24 25 0 30 4 30 25 0 24 2 25 70 25 68 0 70 -1 70
-25 0 -21 5 -25 30 -25 25 0 30 4 30 23 0 15 11 29 31 41 18 10 49 36 70 57
39 39 39 40 39 118 0 44 -7 115 -15 158 -16 83 -20 319 -6 341 5 9 17 11 34 6
41 -10 36 28 -8 57 -39 27 -39 25 -24 119 11 64 10 75 -11 132 -27 76 -40 92
-105 129 -44 26 -59 29 -135 29 -80 -1 -89 -3 -141 -35z m21 -30 c0 -10 -63
-75 -73 -75 -6 0 7 18 28 40 38 39 45 45 45 35z m290 -36 c23 -29 27 -38 13
-30 -25 13 -65 71 -50 71 2 0 19 -18 37 -41z m-45 -16 c67 -117 69 -120 48
-95 -22 27 -87 142 -80 142 3 0 17 -21 32 -47z m-242 -13 c-15 -28 -36 -60
-47 -73 l-18 -22 14 25 c8 14 27 46 42 73 15 26 30 47 33 47 2 0 -8 -23 -24
-50z m266 -136 c39 -15 71 -31 71 -38 0 -6 -8 -40 -18 -76 l-19 -65 -180 -3
-180 -2 -22 76 c-12 42 -21 77 -19 78 2 2 32 15 68 29 92 37 201 37 299 1z
m54 -339 c-8 -66 -13 -142 -10 -168 3 -33 1 -45 -6 -38 -19 19 -20 126 -3 212
33 163 40 160 19 -6z m-374 -105 c0 -60 -4 -91 -14 -104 -17 -23 -20 -14 -4
15 7 14 6 58 -5 154 -20 165 -19 180 4 90 10 -39 19 -107 19 -155z m317 -93
c11 -20 12 -36 4 -69 -5 -24 -10 -72 -10 -107 0 -94 -9 -101 -132 -101 -55 0
-107 4 -117 10 -14 7 -19 27 -25 100 -4 50 -11 101 -16 114 -6 17 -4 31 9 52
l18 29 128 -1 127 0 14 -27z m-329 -267 l26 -35 -31 29 c-25 24 -32 37 -31 65
2 34 2 35 6 6 3 -16 16 -46 30 -65z m402 14 c-7 -8 -22 -20 -33 -26 -21 -11
-21 -10 0 13 12 13 26 40 30 59 l9 35 3 -33 c2 -18 -2 -40 -9 -48z"/>
<path d="M3610 3687 c-94 -46 -381 -185 -587 -283 l-133 -63 0 54 c0 55 0 55
-31 55 -30 0 -30 0 -27 -52 3 -46 6 -53 27 -58 l24 -5 -27 -12 -26 -13 0 -157
0 -158 148 -106 c391 -281 1159 -836 1265 -914 26 -19 47 -31 47 -27 0 5 -86
274 -191 598 -105 324 -234 723 -287 887 -53 163 -101 297 -107 296 -5 0 -48
-19 -95 -42z"/>
<path d="M2632 3398 c3 -49 5 -53 31 -56 27 -3 27 -2 27 52 0 56 0 56 -31 56
l-30 0 3 -52z"/>
<path d="M5452 3420 c-40 -10 -77 -22 -82 -25 -6 -4 -10 -41 -10 -84 l0 -79
68 26 c78 29 215 36 269 14 59 -25 63 -105 6 -131 -13 -6 -71 -11 -128 -11
l-105 0 0 -75 0 -75 105 0 c155 0 210 -29 197 -106 -13 -84 -195 -105 -369
-44 -32 11 -59 20 -60 20 -2 0 -3 -36 -3 -80 l0 -79 51 -15 c80 -24 216 -39
286 -32 73 8 159 37 197 67 58 46 84 159 55 236 -13 36 -64 88 -100 103 l-29
12 32 22 c18 12 43 37 56 56 20 30 23 45 20 101 -5 85 -36 130 -117 167 -77
36 -232 41 -339 12z"/>
<path d="M7930 3433 c-39 -7 -124 -32 -138 -42 -16 -10 -13 -157 3 -154 6 1
37 12 70 24 85 32 231 33 272 3 40 -30 44 -84 7 -113 -23 -18 -40 -21 -134
-21 l-107 0 -7 -46 c-3 -26 -6 -59 -6 -74 l0 -28 124 -3 c108 -4 128 -7 153
-25 39 -29 44 -90 10 -122 -50 -47 -232 -47 -348 -2 -27 11 -52 20 -54 20 -3
0 -5 -36 -5 -80 l0 -79 53 -15 c237 -68 465 -28 527 94 22 44 27 130 9 177
-13 36 -64 88 -100 103 l-29 12 32 22 c51 35 71 70 76 134 8 107 -53 179 -175
208 -55 13 -178 17 -233 7z"/>
<path d="M6177 3423 c-4 -3 -7 -177 -7 -385 l0 -379 228 3 c221 3 228 4 283
29 81 38 112 83 117 169 5 85 -20 139 -82 178 l-44 28 33 21 c42 28 65 79 65
142 0 106 -64 170 -190 190 -71 12 -393 15 -403 4z m373 -146 c63 -22 75 -96
23 -137 -22 -17 -41 -20 -129 -20 l-104 0 0 85 0 85 88 -1 c48 0 103 -5 122
-12z m11 -297 c51 -14 72 -41 72 -92 0 -33 -6 -47 -27 -65 -25 -21 -36 -23
-147 -23 l-119 0 0 95 0 95 93 0 c50 0 108 -5 128 -10z"/>
<path d="M7030 3045 l0 -385 275 0 276 0 -3 73 -3 72 -187 3 -188 2 0 80 0 80
170 0 170 0 0 75 0 75 -170 0 -170 0 0 80 0 80 185 0 186 0 -3 73 -3 72 -267
3 -268 2 0 -385z"/>
<path d="M8736 3318 c-12 -194 -42 -342 -91 -454 -24 -54 -24 -54 -69 -54
l-46 0 0 -160 0 -161 73 3 72 3 3 83 3 82 264 0 265 0 0 -85 0 -85 75 0 76 0
-3 158 -3 157 -47 3 -48 3 -2 307 -3 307 -256 3 -257 2 -6 -112z m354 -278 l0
-230 -146 0 c-135 0 -146 1 -139 18 41 93 71 227 81 356 l7 86 98 0 99 0 0
-230z"/>
<path d="M9812 3418 c-5 -7 -76 -175 -157 -373 -81 -198 -149 -366 -152 -373
-4 -10 14 -12 83 -10 l88 3 26 65 26 65 175 3 174 2 25 -67 25 -68 89 -3 c69
-2 87 0 83 10 -8 22 -247 609 -279 686 l-30 72 -83 0 c-54 0 -86 -4 -93 -12z
m150 -326 l56 -147 -59 -3 c-32 -2 -85 -2 -118 0 l-58 3 56 147 c31 81 58 148
61 148 3 0 30 -66 62 -148z"/>
<path d="M5924 2271 c-45 -28 -64 -59 -64 -109 0 -83 50 -132 134 -132 49 0
66 9 66 34 0 19 -4 21 -50 18 -42 -3 -53 0 -75 22 -33 34 -33 79 1 113 22 22
32 25 75 21 45 -5 49 -3 49 17 0 39 -83 48 -136 16z"/>
<path d="M7313 2280 c-24 -10 -43 -39 -43 -68 0 -25 36 -57 82 -71 40 -13 63
-35 53 -51 -8 -13 -75 -13 -109 0 -23 9 -26 7 -26 -14 0 -18 8 -27 31 -35 100
-35 182 16 153 94 -4 10 -36 30 -71 46 -80 36 -79 54 0 54 48 0 57 2 57 17 0
32 -76 48 -127 28z"/>
<path d="M7810 2233 l0 -54 -57 3 -58 3 -3 48 c-3 43 -5 47 -28 47 l-25 0 3
-122 c3 -118 4 -123 25 -126 20 -3 22 2 25 50 l3 53 55 0 55 0 3 -52 c3 -49 5
-53 28 -53 l24 0 0 124 0 124 -25 4 c-24 5 -25 3 -25 -49z"/>
<path d="M8132 2271 c-3 -9 -25 -63 -49 -120 -24 -57 -43 -108 -43 -112 0 -5
11 -9 23 -9 16 0 28 9 35 25 10 23 17 25 70 25 53 0 60 -2 70 -25 12 -25 52
-36 52 -13 0 6 -21 62 -46 124 -43 104 -48 112 -76 116 -21 4 -32 0 -36 -11z
m67 -133 c1 -14 -7 -18 -34 -18 -41 0 -41 0 -18 63 l18 49 17 -39 c9 -21 17
-46 17 -55z"/>
<path d="M8870 2159 l0 -129 25 0 25 0 0 124 0 124 -25 4 -25 5 0 -128z"/>
<path d="M9288 2206 l-3 -81 -55 77 c-46 64 -60 78 -82 78 l-28 0 0 -125 0
-125 25 0 c24 0 24 2 27 83 l3 82 60 -83 c45 -63 64 -82 80 -80 19 3 20 11 23
124 l3 122 -25 4 c-25 5 -25 4 -28 -76z"/>
<path d="M9591 2271 c-18 -10 -40 -29 -47 -42 -18 -33 -17 -104 2 -140 25 -50
113 -74 178 -49 24 9 26 13 23 67 -3 53 -5 58 -27 58 -21 0 -24 -5 -24 -40 -1
-39 -2 -40 -37 -43 -71 -6 -105 83 -53 135 23 22 32 25 80 21 50 -4 54 -3 54
17 0 38 -90 47 -149 16z"/>
<path d="M6277 2165 c-26 -63 -47 -119 -47 -125 0 -5 11 -10 25 -10 18 0 26 7
31 25 6 23 10 25 69 25 59 0 63 -2 69 -25 5 -18 13 -25 31 -25 14 0 25 3 25 7
0 4 -21 61 -47 125 -46 116 -47 118 -78 118 -30 0 -32 -3 -78 -115z m112 -32
c1 -8 -12 -13 -34 -13 -40 0 -42 6 -18 68 l17 44 17 -43 c10 -24 18 -50 18
-56z"/>
<path d="M6660 2155 l0 -125 25 0 c23 0 25 4 25 45 0 40 2 45 23 45 16 0 34
-14 57 -45 23 -31 41 -45 57 -45 31 0 28 18 -7 59 l-29 34 24 23 c33 31 34 82
2 112 -20 19 -35 22 -100 22 l-77 0 0 -125z m140 70 c6 -8 9 -23 5 -35 -5 -16
-15 -20 -51 -20 -44 0 -44 0 -44 35 0 34 1 35 39 35 21 0 44 -6 51 -15z"/>
<path d="M8470 2155 l0 -125 25 0 c23 0 25 4 25 45 0 40 2 45 23 45 16 0 34
-14 56 -45 23 -32 39 -45 57 -45 31 0 30 8 -5 55 l-29 39 24 23 c32 30 32 82
1 111 -20 19 -35 22 -100 22 l-77 0 0 -125z m136 71 c30 -23 7 -50 -45 -54
-41 -3 -41 -3 -41 32 0 34 2 36 33 36 18 0 42 -6 53 -14z"/>
</g>
</svg>
